<?xml version="1.0" encoding="UTF-8" standalone="no"?>
<svg
   width="1000"
   height="428"
   viewBox="0 0 1000 428"
   fill="none"
   version="1.1"
   id="svg102"
   sodipodi:docname="Product Design LandingPage.svg"
   inkscape:export-filename="icon-3.svg"
   inkscape:export-xdpi="96"
   inkscape:export-ydpi="96"
   xmlns:inkscape="http://www.inkscape.org/namespaces/inkscape"
   xmlns:sodipodi="http://sodipodi.sourceforge.net/DTD/sodipodi-0.dtd"
   xmlns="http://www.w3.org/2000/svg"
   xmlns:svg="http://www.w3.org/2000/svg">
  <defs
     id="defs106" />
  <sodipodi:namedview
     id="namedview104"
     pagecolor="#ffffff"
     bordercolor="#000000"
     borderopacity="0.25"
     inkscape:showpageshadow="2"
     inkscape:pageopacity="0.0"
     inkscape:pagecheckerboard="0"
     inkscape:deskcolor="#d1d1d1"
     showgrid="false" />
  <path
     d="m 430.742,360 v -9.123 h 3.062 l 0.458,-3.555 h -3.52 v -2.27 c 0,-1.03 0.285,-1.731 1.762,-1.731 l 1.882,-0.001 v -3.18 c -0.911,-0.096 -1.827,-0.143 -2.743,-0.14 -2.714,0 -4.573,1.657 -4.573,4.7 v 2.622 H 424 v 3.555 h 3.07 V 360 Z"
     fill="#000000"
     id="path86" />
  <path
     d="m 508,343.157 c -0.827,0.36 -1.701,0.598 -2.596,0.707 0.944,-0.567 1.651,-1.458 1.991,-2.51 -0.887,0.531 -1.858,0.905 -2.871,1.106 -0.677,-0.738 -1.579,-1.229 -2.563,-1.396 -0.985,-0.168 -1.997,-0.002 -2.878,0.471 -0.881,0.473 -1.58,1.226 -1.989,2.142 -0.409,0.916 -0.504,1.942 -0.27,2.918 -1.794,-0.091 -3.548,-0.561 -5.149,-1.378 -1.602,-0.817 -3.014,-1.964 -4.146,-3.365 -0.397,0.697 -0.606,1.486 -0.605,2.288 -10e-4,0.746 0.181,1.48 0.53,2.138 0.349,0.658 0.855,1.219 1.472,1.632 -0.717,-0.019 -1.419,-0.213 -2.046,-0.563 v 0.055 c 0.005,1.045 0.37,2.055 1.031,2.861 0.661,0.806 1.58,1.357 2.599,1.561 -0.392,0.12 -0.8,0.183 -1.21,0.188 -0.284,-0.003 -0.567,-0.029 -0.847,-0.077 0.29,0.898 0.852,1.684 1.607,2.246 0.755,0.563 1.666,0.875 2.606,0.894 -1.587,1.255 -3.547,1.94 -5.566,1.945 -0.368,0.002 -0.735,-0.021 -1.1,-0.066 2.062,1.338 4.465,2.048 6.919,2.045 1.694,0.018 3.374,-0.304 4.942,-0.946 1.569,-0.642 2.995,-1.592 4.194,-2.794 1.199,-1.203 2.148,-2.633 2.791,-4.208 0.643,-1.575 0.967,-3.262 0.954,-4.965 0,-0.188 0,-0.387 0,-0.586 0.863,-0.647 1.608,-1.44 2.2,-2.343 z"
     fill="#000000"
     id="path88" />
  <path
     d="m 585.994,347.344 c 0.058,-1.666 -0.311,-3.319 -1.075,-4.806 -0.518,-0.61 -1.237,-1.022 -2.031,-1.164 -3.287,-0.293 -6.586,-0.414 -9.886,-0.36 -3.287,-0.056 -6.575,0.06 -9.85,0.349 -0.647,0.116 -1.247,0.415 -1.724,0.861 -1.063,0.966 -1.181,2.618 -1.299,4.014 -0.172,2.511 -0.172,5.03 0,7.541 0.034,0.786 0.152,1.566 0.354,2.327 0.142,0.588 0.43,1.131 0.838,1.582 0.481,0.47 1.095,0.786 1.76,0.908 2.546,0.31 5.112,0.438 7.677,0.384 4.134,0.058 7.76,0 12.047,-0.326 0.682,-0.114 1.313,-0.431 1.807,-0.907 0.331,-0.326 0.578,-0.725 0.721,-1.164 0.422,-1.277 0.629,-2.613 0.614,-3.956 0.047,-0.652 0.047,-4.585 0.047,-5.283 z m -15.661,5.981 v -7.203 l 6.992,3.619 c -1.961,1.07 -4.547,2.281 -6.992,3.584 z"
     fill="#000000"
     id="path90" />
</svg>
