<svg width="22" height="18" viewBox="0 0 22 18" fill="none" xmlns="http://www.w3.org/2000/svg">
<path d="M22 2.15701C21.173 2.51701 20.299 2.75501 19.404 2.86401C20.348 2.29701 21.055 1.406 21.395 0.354004C20.508 0.885004 19.537 1.25899 18.524 1.45999C17.847 0.721991 16.945 0.230995 15.961 0.0639952C14.976 -0.104005 13.964 0.0620035 13.083 0.535003C12.202 1.008 11.503 1.761 11.094 2.677C10.685 3.593 10.59 4.619 10.824 5.595C9.03001 5.504 7.27599 5.03401 5.67499 4.21701C4.07299 3.40001 2.66099 2.25299 1.52899 0.85199C1.13199 1.54899 0.923011 2.33801 0.924011 3.14001C0.923011 3.88601 1.10501 4.62002 1.45401 5.27802C1.80301 5.93602 2.30899 6.497 2.92599 6.91C2.20899 6.891 1.507 6.69698 0.880005 6.34698V6.40201C0.885005 7.44701 1.25001 8.457 1.91101 9.263C2.57201 10.069 3.49101 10.62 4.51001 10.824C4.11801 10.944 3.70999 11.007 3.29999 11.012C3.01599 11.009 2.733 10.983 2.453 10.935C2.743 11.833 3.305 12.619 4.06 13.181C4.815 13.744 5.72599 14.056 6.66599 14.075C5.07899 15.33 3.11901 16.015 1.10001 16.02C0.732006 16.022 0.365 15.999 0 15.954C2.062 17.292 4.46501 18.002 6.91901 17.999C8.61301 18.017 10.293 17.695 11.861 17.053C13.43 16.411 14.856 15.461 16.055 14.259C17.254 13.056 18.203 11.626 18.846 10.051C19.489 8.47599 19.813 6.789 19.8 5.086C19.8 4.898 19.8 4.699 19.8 4.5C20.663 3.853 21.408 3.06001 22 2.15701V2.15701Z" fill="white"/>
</svg>
